<svg width="398" height="95" viewBox="0 0 398 95" fill="none" xmlns="http://www.w3.org/2000/svg">
<path d="M8.28418 63.7814V58.9263H34.8386V67.885H12.3983C10.1276 67.885 8.28418 66.0463 8.28418 63.7814Z" fill="#7767A0"/>
<path d="M84.042 32.4397H91.3367C92.2678 32.4397 93.0236 33.1936 93.0236 34.1223V55.2754C93.0236 57.9353 90.8586 60.0948 88.1919 60.0948H84.042V32.4397Z" fill="#7767A0"/>
<path d="M75.7191 46.8466C75.7191 49.8937 75.1886 52.6957 74.1277 55.2538C73.0664 57.8124 71.6035 60.0156 69.7387 61.8644C67.8727 63.7135 65.6582 65.1612 63.0936 66.2076C60.5282 67.2542 57.7424 67.7774 54.7347 67.7774H30.1831C29.5301 67.7774 28.9239 67.6614 28.3645 67.4286C27.8048 67.1964 27.3207 66.8765 26.913 66.4693C26.5048 66.0627 26.1841 65.5798 25.9513 65.0216C25.7179 64.4634 25.6016 63.8589 25.6016 63.2076V22.3228C25.6016 21.6948 25.7179 21.1018 25.9513 20.5438C26.1841 19.9856 26.5048 19.4971 26.913 19.0785C27.3207 18.6599 27.8048 18.3345 28.3645 18.1017C28.9239 17.8695 29.5301 17.7529 30.1831 17.7529H54.7347C57.7424 17.7529 60.5282 18.2762 63.0936 19.3228C65.6582 20.3694 67.8727 21.8169 69.7387 23.6659C71.6035 25.5148 73.0664 27.7244 74.1277 30.2939C75.1886 32.8639 75.7191 35.6606 75.7191 38.6837V46.8467V46.8466ZM66.6257 38.6837C66.6257 36.9167 66.3401 35.2998 65.7692 33.8348C65.1975 32.3696 64.3875 31.1197 63.3384 30.0847C62.2889 29.05 61.0354 28.2478 59.5787 27.6776C58.1211 27.108 56.5065 26.8229 54.7347 26.8229H34.6948V58.7075H54.7347C56.5065 58.7075 58.1211 58.423 59.5787 57.8528C61.0355 57.2832 62.2889 56.4809 63.3384 55.4457C64.3875 54.4113 65.1975 53.1669 65.7692 51.7131C66.34 50.26 66.6257 48.6379 66.6257 46.8467V38.6837V38.6837Z" fill="#7767A0"/>
<path d="M25.6611 58.5369H34.6428V85.0235H29.9976C27.6043 85.0235 25.6611 83.0853 25.6611 80.6981V58.5369Z" fill="#7767A0"/>
<path d="M13.1923 0.5H17.2658V67.8851H12.5674C10.2034 67.8851 8.28418 65.9708 8.28418 63.6128V5.39562C8.28418 2.69368 10.4834 0.5 13.1923 0.5Z" fill="#7767A0"/>
<path d="M25.8564 80.9198V76.0647H52.4109V85.0234H29.9705C27.6999 85.0234 25.8564 83.1847 25.8564 80.9198Z" fill="#7767A0"/>
<path d="M25.8564 5.35515V0.500034L58.659 0.500034V9.45874L29.9705 9.45874C27.6999 9.45874 25.8564 7.61999 25.8564 5.35515Z" fill="#7767A0"/>
<path fill-rule="evenodd" clip-rule="evenodd" d="M56.5361 9.45867C56.537 9.45866 56.5379 9.45866 56.5118 4.97938C56.4857 0.500103 56.4867 0.500098 56.4877 0.500092L56.4948 0.500058L56.5071 0.500019L56.5407 0.5C56.5672 0.500028 56.6017 0.500157 56.6441 0.500502C56.7287 0.501192 56.8445 0.502748 56.9893 0.506095C57.2786 0.512785 57.6846 0.526654 58.1892 0.555186C59.1965 0.612146 60.6069 0.728121 62.274 0.964792C65.5748 1.43339 70.0446 2.39751 74.4147 4.42262C83.036 8.41777 91.2796 17.8555 92.9981 33.7111L84.0685 34.674C82.6629 21.706 76.1892 15.1233 70.6304 12.5473C67.3313 11.0185 63.7958 10.2298 61.0084 9.83411C59.6315 9.63863 58.4772 9.54457 57.6808 9.49953C57.2835 9.47706 56.9779 9.46694 56.7811 9.4624C56.6828 9.46012 56.6119 9.45925 56.5706 9.45891C56.55 9.45874 56.5367 9.45871 56.5312 9.4587C56.5284 9.4587 56.5275 9.4587 56.5287 9.4587L56.5318 9.45869L56.5361 9.45867Z" fill="#7767A0"/>
<path fill-rule="evenodd" clip-rule="evenodd" d="M86.7219 71.6328C83.4224 75.3501 79.322 77.8025 75.9376 79.75C70.1263 83.0941 63.9636 84.3729 59.3786 84.8445C57.0647 85.0825 55.0941 85.1208 53.6858 85.0985C52.9802 85.0874 52.4117 85.0609 52.007 85.036C51.8045 85.0235 51.6427 85.0114 51.5248 85.0018C51.4659 84.997 51.4179 84.9927 51.3813 84.9894C51.3631 84.9877 51.3476 84.9863 51.335 84.9851L51.3184 84.9834L51.3087 84.9825C51.3074 84.9823 51.3061 84.9822 51.7574 80.5255C52.2087 76.0689 52.2075 76.0687 52.2063 76.0686L52.2007 76.0681L52.1969 76.0677C52.1958 76.0676 52.1974 76.0677 52.2017 76.0681C52.2103 76.0689 52.2297 76.0707 52.2596 76.0731C52.3193 76.078 52.4205 76.0857 52.5601 76.0943C52.8394 76.1115 53.2707 76.1321 53.8284 76.141C54.9467 76.1587 56.5564 76.1286 58.4573 75.9331C62.302 75.5376 67.1073 74.4887 71.4493 71.9901C74.8366 70.0408 77.7654 68.2086 79.9972 65.6942C82.1069 63.3174 83.7277 60.1664 84.0518 55.3176L93.0135 55.9136C92.5566 62.7501 90.1436 67.7779 86.7219 71.6328Z" fill="#7767A0"/>
<path d="M5.35508 84.634C7.83529 84.634 9.8459 82.6285 9.8459 80.1546C9.8459 77.6808 7.83529 75.6753 5.35508 75.6753C2.87487 75.6753 0.864258 77.6808 0.864258 80.1546C0.864258 82.6285 2.87487 84.634 5.35508 84.634Z" fill="#7767A0"/>
<path d="M16.2889 79.5703C18.3378 79.5703 19.9987 77.9137 19.9987 75.87C19.9987 73.8264 18.3378 72.1697 16.2889 72.1697C14.24 72.1697 12.5791 73.8264 12.5791 75.87C12.5791 77.9137 14.24 79.5703 16.2889 79.5703Z" fill="#7767A0"/>
<path d="M16.3444 94.5C19.6569 94.5 22.3422 91.8216 22.3422 88.5176C22.3422 85.2136 19.6569 82.5352 16.3444 82.5352C13.032 82.5352 10.3467 85.2136 10.3467 88.5176C10.3467 91.8216 13.032 94.5 16.3444 94.5Z" fill="#7767A0"/>
<path d="M133.292 31.2684C135.059 31.2684 136.865 31.6093 138.371 32.2909C139.877 32.9726 141.178 33.9153 142.274 35.1196C143.369 36.3236 144.228 37.7628 144.851 39.4365C145.474 41.1102 145.786 42.9317 145.786 44.9006V50.217C145.786 52.2015 145.834 54.2966 145.834 55.9455C145.834 60.0677 145.446 60.787 144.35 61.9913C143.255 63.1953 141.384 63.915 139.307 63.915C137.231 63.915 135.154 63.915 133.462 63.8492H119.043C118.66 63.8492 118.304 63.7736 117.975 63.622C117.646 63.4708 117.362 63.2625 117.123 62.9972C116.883 62.7325 116.695 62.4177 116.558 62.0543C116.421 61.691 116.353 61.2972 116.353 60.8728V34.2448C116.353 33.8359 116.393 33.4668 116.393 32.9172C116.393 32.5324 116.449 32.0907 116.689 31.818C116.929 31.5456 117.509 31.2684 117.876 31.2684H121.485M140.446 44.9006C140.446 43.7495 140.278 42.6968 139.942 41.7425C139.607 40.7882 139.131 39.9742 138.515 39.3C137.899 38.6264 137.162 38.1038 136.307 37.7323C135.451 37.3616 134.503 37.1757 133.462 37.1757H121.693V57.9419H133.462C134.502 57.9419 135.692 57.8691 136.637 57.8691C137.824 57.8691 139.307 57.8691 139.901 57.5943C140.651 57.2467 140.494 55.6706 140.494 54.2966C140.494 53.3003 140.446 51.3836 140.446 50.2169L140.446 44.9006Z" fill="#42424A"/>
<path d="M179.702 56.4213C179.702 57.1817 179.655 58.6271 179.655 59.5424C179.655 60.4624 179.796 61.8402 179.196 62.5935C178.595 63.347 178.397 63.4694 177.36 63.8139C176.443 64.119 173.503 63.984 172.119 63.984H162.186C161.424 63.984 159.576 64.1048 158.701 63.8139C158.089 63.6105 157.478 63.3054 156.866 62.8986C156.093 62.3849 155.642 61.373 155.642 59.8474V53.7453C155.642 52.83 155.654 52.3631 156.254 51.6096C156.854 50.8563 157.734 50.3892 158.701 50.3892C159.619 50.3892 160.803 50.363 162.187 50.363H167.962L169.407 50.3892V54.9658L167.917 54.9917H162.187C161.438 54.9917 160.231 54.9963 160.231 54.9963V57.4066C160.231 58.1247 160.231 58.627 160.545 59.0582C160.911 59.559 161.579 59.6604 162.229 59.6604H172.12C172.868 59.6604 173.892 59.6881 174.302 59.2374C174.711 58.7868 174.607 57.0552 174.607 56.3791V51.3042C174.607 50.3892 174.913 48.2534 173.996 47.3381C173.078 46.4227 171.854 46.1177 170.937 46.1177L163.581 46.0607L157.784 46.1177V41.0834L163.401 41.1481H172.12C172.882 41.1481 173.704 41.2822 174.587 41.5494C175.469 41.817 176.288 42.2502 177.044 42.8485C177.799 43.4474 178.431 44.2289 178.939 45.1934C179.448 46.1582 179.702 47.3306 179.702 48.7108L179.702 56.4213Z" fill="#42424A"/>
<path d="M238.192 48.8634V51.9148C238.192 52.8348 238.229 54.0506 237.923 54.6608C237.502 55.5009 236.694 55.7287 235.782 55.7287C234.44 55.7287 232.932 55.6635 231.636 55.6635H224.173V51.361H231.636C232.337 51.361 233.157 51.482 233.61 50.9995C233.897 50.6944 233.897 50.7624 233.897 50.3893V46.0873C233.61 46.0873 232.244 46.0609 231.636 46.0609L223.301 46.1178C221.583 46.1178 221.107 47.186 220.724 47.6433C220.34 48.1013 220.151 49.103 220.151 49.7791L220.137 56.4214C220.137 57.1538 220.008 58.5241 220.438 58.9323C220.867 59.3408 221.743 59.3554 222.377 59.3554H237.233V63.9842H222.338C221.624 63.9842 220.442 63.9666 219.579 63.9666C218.719 63.9666 217.422 63.8024 216.715 63.2038C216.008 62.6052 216.045 62.6431 215.57 61.6783C215.094 60.7138 215.24 57.8019 215.24 56.4214V48.7109C215.24 47.9502 215.365 47.1299 215.616 46.2498C215.867 45.3699 216.274 44.5529 216.836 43.7993C217.397 43.0461 218.131 42.4156 219.036 41.9085C219.942 41.4017 221.042 41.1481 222.338 41.1481H231.637C232.35 41.1481 233.643 40.9687 234.47 41.236C235.295 41.5036 235.767 41.553 236.474 42.1513C237.181 42.7502 237.43 43.0175 237.906 43.982C238.382 44.9468 238.192 47.4833 238.192 48.8634Z" fill="#42424A"/>
<path d="M273.401 63.984H267.894V51.3089C267.894 50.5908 267.77 49.9463 267.524 49.3761C267.276 48.8058 266.941 48.3166 266.518 47.908C266.094 47.4995 265.596 47.1864 265.024 46.968C264.453 46.7496 263.835 46.6405 263.171 46.6405H253.535V63.984H248.028V43.8731C248.028 43.4929 248.099 43.1374 248.24 42.8061C248.381 42.4754 248.579 42.1866 248.833 41.9402C249.087 41.6938 249.384 41.5001 249.723 41.3592C250.062 41.2186 250.422 41.148 250.803 41.148H263.214C263.905 41.148 264.636 41.2254 265.406 41.3803C266.175 41.5353 266.938 41.7853 267.693 42.1303C268.448 42.4753 269.168 42.9118 269.854 43.4398C270.538 43.9681 271.145 44.609 271.675 45.3623C272.204 46.1158 272.624 46.9856 272.935 47.9712C273.245 48.9571 273.401 50.0701 273.401 51.3089L273.401 63.984Z" fill="#42424A"/>
<path d="M308.184 61.3608C308.184 62.6295 307.153 63.6579 305.881 63.6579H285.513C285.118 63.6579 284.75 63.5876 284.412 63.4467C284.073 63.306 283.78 63.1124 283.533 62.8657C283.286 62.6196 283.091 62.327 282.95 61.9891C282.809 61.6512 282.739 61.285 282.739 60.8906V30.9238H285.019C286.801 30.9238 288.245 32.3648 288.245 34.1423V58.1655H308.184L308.184 61.3608Z" fill="#42424A"/>
<path d="M397.865 56.3018C397.865 57.2455 397.744 58.0941 397.505 58.8473C397.264 59.6008 396.947 60.2626 396.552 60.8332C396.156 61.4034 395.697 61.8894 395.175 62.2908C394.652 62.6921 394.105 63.0196 393.533 63.2732C392.962 63.5264 392.383 63.7133 391.797 63.8327C391.211 63.9525 390.656 64.0124 390.134 64.0124H380.201C379.255 64.0124 378.408 63.8929 377.66 63.6534C376.911 63.4141 376.251 63.0935 375.679 62.6922C375.108 62.2909 374.621 61.8297 374.218 61.3085C373.816 60.7877 373.487 60.2415 373.233 59.6712C372.979 59.1009 372.792 58.5235 372.672 57.9389C372.552 57.3549 372.492 56.8088 372.492 56.3019V48.8658C372.492 47.4577 372.75 46.2641 373.265 45.2853C373.78 44.3065 374.423 43.5106 375.192 42.8981C375.962 42.2855 376.798 41.8454 377.702 41.5778C378.605 41.3105 379.439 41.1765 380.201 41.1765H390.134V46.669L382.553 46.7563C380.412 46.7563 379.569 47.604 379.188 47.9767C378.807 48.35 377.965 49.5022 377.965 51.3329L377.999 56.2596C377.999 57.0063 378.186 57.5694 378.56 57.9496C378.934 58.3298 379.481 58.5199 380.201 58.5199H390.134C390.883 58.5199 391.44 58.3298 391.807 57.9496C392.174 57.5694 392.358 57.02 392.358 56.3019L392.342 31.1957H397.848L397.865 56.3018Z" fill="#42424A"/>
<path d="M206.648 46.5754L199.727 46.6406V63.9841H194.156V46.6406H186.998V41.1481H194.156V33.6908H197.414C198.691 33.6908 199.727 34.7236 199.727 35.9977V41.1481L206.648 41.0834V46.5754Z" fill="#42424A"/>
<path d="M346.813 64.1472H352.319L352.625 53.4411C352.625 51.8015 352.907 49.8906 354.045 48.7071C355.055 47.6565 356.627 46.7561 359.048 46.7561H367.002V41.2641H356.165C354.395 41.2641 352.64 41.7161 351.143 42.6581C348.937 44.0467 346.652 46.8018 346.813 52.248L346.813 64.1472Z" fill="#42424A"/>
<path d="M330.828 64.1474H327.68C321.565 64.1474 316.609 59.2035 316.609 53.1051V52.3066C316.609 46.2081 321.565 41.2643 327.68 41.2643H330.828C336.943 41.2643 341.899 46.2081 341.899 52.3066V53.1051C341.899 59.2035 336.943 64.1474 330.828 64.1474ZM335.076 54.9075V53.0779C335.076 49.8604 332.461 47.252 329.235 47.252H327.307C325.31 47.252 323.69 48.8674 323.69 50.86V52.4277C323.69 55.7899 326.423 58.5155 329.794 58.5155H331.458C333.456 58.5155 335.076 56.9002 335.076 54.9075Z" fill="#42424A"/>
</svg>
